<svg xmlns="http://www.w3.org/2000/svg" viewBox="0 0 332 92" role="img" aria-label="donutest">
  <defs>
    <clipPath id="r"><path d="M8 50 a42 42 0 1 0 84 0 a42 42 0 1 0 -84 0 Z M35 50 a15 15 0 1 0 30 0 a15 15 0 1 0 -30 0 Z" clip-rule="evenodd"/></clipPath>
  </defs>
  <g transform="translate(10 14) scale(0.64)">
    <g clip-path="url(#r)">
      <rect width="100" height="100" fill="#F4C79A"/>
      <path d="M4 47 C 16 40 22 57 33 50 C 41 45 49 59 59 50 C 69 44 77 57 96 47 L96 2 L4 2 Z" fill="#FF4F87"/>
      <ellipse cx="30" cy="22" rx="14" ry="7" fill="#FFA5C1" opacity="0.5"/>
      <rect x="26" y="22" width="8" height="3" rx="1.5" fill="#FFFFFF" transform="rotate(-28 30 23.5)"/>
      <rect x="45" y="15" width="8" height="3" rx="1.5" fill="#61F3F3" transform="rotate(18 49 16.5)"/>
      <rect x="60" y="24" width="8" height="3" rx="1.5" fill="#3998FF" transform="rotate(42 64 25.5)"/>
      <rect x="20" y="40" width="8" height="3" rx="1.5" fill="#C684FF" transform="rotate(64 24 41.5)"/>
      <rect x="68" y="40" width="8" height="3" rx="1.5" fill="#94ED77" transform="rotate(-48 72 41.5)"/>
      <rect x="44" y="33" width="8" height="3" rx="1.5" fill="#FFD666" transform="rotate(-8 48 34.5)"/>
    </g>
    <circle cx="50" cy="50" r="42" fill="none" stroke="#E39A66" stroke-width="1.5" opacity="0.6"/>
    <circle cx="50" cy="50" r="15" fill="none" stroke="#E39A66" stroke-width="1.2" opacity="0.5"/>
  </g>
  <g transform="translate(84 64) scale(0.054000 -0.054000)"><path d="M205 0Q23 0 23 268Q23 384 68 454Q113 523 203 523Q252 523 282 503Q313 483 330 448Q348 414 356 369L359 370V673Q359 714 384 742Q408 771 455 771Q501 771 524 742Q546 714 546 671V221Q546 187 552 158Q557 130 560 102Q563 64 544 36Q526 9 479 1Q418 -9 388 22Q359 53 359 114V151H340Q340 78 304 39Q267 0 205 0ZM190 277Q190 246 209 231Q228 216 277 216Q327 216 346 231Q365 246 365 277Q365 309 346 324Q328 338 278 338Q228 338 209 324Q190 309 190 277ZM860 -2Q743 -2 674 68Q604 137 604 264Q604 342 636 401Q668 460 726 494Q783 527 860 527Q946 527 1003 494Q1060 460 1088 401Q1117 342 1117 264Q1117 137 1054 68Q990 -2 860 -2ZM723 281Q723 250 754 238Q785 225 860 225Q935 225 966 238Q997 250 997 281Q997 311 966 323Q935 335 860 335Q785 335 754 323Q723 311 723 281ZM1263 0Q1219 0 1192 26Q1166 53 1166 92V423Q1166 465 1191 494Q1216 523 1263 523Q1309 523 1333 494Q1357 465 1357 421V371H1375Q1375 428 1396 461Q1416 494 1448 508Q1480 523 1512 523Q1589 523 1625 468Q1661 412 1661 310V92Q1661 53 1635 26Q1609 0 1565 0Q1520 0 1494 26Q1467 53 1467 92V269Q1467 305 1454 325Q1440 345 1414 345Q1384 345 1370 323Q1357 301 1357 267V92Q1357 53 1332 26Q1307 0 1263 0ZM1873 0Q1803 0 1759 53Q1715 106 1714 202L1713 433Q1713 476 1740 500Q1766 525 1812 525Q1856 525 1883 500Q1910 476 1910 433V224Q1910 149 1969 149Q1998 149 2008 170Q2018 192 2018 226V433Q2018 472 2045 498Q2072 525 2115 525Q2160 525 2184 498Q2209 472 2209 433V105Q2209 57 2188 28Q2166 0 2118 0Q2071 0 2044 28Q2018 57 2018 105V122H2000Q2000 64 1966 32Q1931 0 1873 0ZM2551 -3Q2498 -3 2456 21Q2413 45 2389 90Q2365 134 2365 194V370L2328 365Q2298 361 2275 386Q2252 411 2252 449Q2252 487 2275 512Q2298 536 2328 532L2365 527L2364 595Q2363 635 2387 658Q2411 682 2457 682Q2503 682 2528 658Q2553 635 2551 595L2549 527L2602 534Q2656 542 2684 514Q2712 487 2712 449Q2712 411 2684 384Q2657 356 2605 363L2549 370V221Q2549 208 2558 198Q2567 187 2580 191Q2595 195 2612 208Q2628 221 2654 221Q2693 221 2714 193Q2735 165 2735 124Q2735 92 2712 62Q2690 33 2649 15Q2608 -3 2551 -3ZM2776 260Q2776 339 2808 399Q2839 459 2898 493Q2956 527 3037 527Q3100 527 3150 504Q3201 481 3230 442Q3259 404 3259 358Q3259 310 3231 290Q3203 270 3148 270H2938Q2938 244 2958 227Q2979 210 3028 210Q3053 210 3074 215Q3096 220 3118 224Q3141 229 3169 229Q3209 229 3235 200Q3261 172 3261 122Q3261 63 3200 30Q3140 -3 3042 -3Q2973 -3 2912 24Q2852 51 2814 110Q2776 168 2776 260ZM3100 303Q3115 303 3110 317Q3106 331 3086 346Q3066 361 3028 361Q2984 361 2962 342Q2941 323 2941 303ZM3558 -13Q3489 -13 3430 0Q3372 14 3337 44Q3302 73 3302 122Q3302 165 3328 193Q3354 221 3397 221Q3424 221 3452 212Q3479 204 3510 196Q3541 188 3577 188Q3609 188 3620 192Q3631 195 3631 205Q3631 217 3618 221Q3604 225 3572 231L3500 245Q3455 254 3412 268Q3370 283 3342 312Q3315 341 3315 391Q3315 459 3376 497Q3436 535 3551 535Q3617 535 3670 522Q3722 509 3753 484Q3784 458 3784 420Q3785 379 3762 354Q3739 329 3704 329Q3679 329 3654 336Q3628 342 3598 350Q3569 357 3531 358Q3504 360 3487 355Q3470 350 3470 339Q3470 327 3490 322Q3510 318 3550 311L3621 298Q3686 287 3724 270Q3763 254 3780 225Q3797 196 3797 145Q3797 92 3766 56Q3736 21 3682 4Q3628 -13 3558 -13ZM4136 -3Q4083 -3 4040 21Q3998 45 3974 90Q3950 134 3950 194V370L3913 365Q3883 361 3860 386Q3837 411 3837 449Q3837 487 3860 512Q3883 536 3913 532L3950 527L3949 595Q3948 635 3972 658Q3996 682 4042 682Q4088 682 4113 658Q4138 635 4136 595L4134 527L4187 534Q4241 542 4269 514Q4297 487 4297 449Q4297 411 4270 384Q4242 356 4190 363L4134 370V221Q4134 208 4143 198Q4152 187 4165 191Q4180 195 4196 208Q4213 221 4239 221Q4278 221 4299 193Q4320 165 4320 124Q4320 92 4298 62Q4275 33 4234 15Q4193 -3 4136 -3Z" fill="#3B2A26"/></g>
</svg>
