<svg xmlns="http://www.w3.org/2000/svg" viewBox="0 0 100 100" role="img" aria-label="donutest symbol">
  <defs>
    <clipPath id="r"><path d="M8 50 a42 42 0 1 0 84 0 a42 42 0 1 0 -84 0 Z M35 50 a15 15 0 1 0 30 0 a15 15 0 1 0 -30 0 Z" clip-rule="evenodd"/></clipPath>
  </defs>
  <g clip-path="url(#r)">
    <rect width="100" height="100" fill="#F4C79A"/>
    <path d="M4 47 C 16 40 22 57 33 50 C 41 45 49 59 59 50 C 69 44 77 57 96 47 L96 2 L4 2 Z" fill="#FF4F87"/>
    <ellipse cx="30" cy="22" rx="14" ry="7" fill="#FFA5C1" opacity="0.5"/>
    <rect x="26" y="22" width="8" height="3" rx="1.5" fill="#FFFFFF" transform="rotate(-28 30 23.5)"/>
    <rect x="45" y="15" width="8" height="3" rx="1.5" fill="#61F3F3" transform="rotate(18 49 16.5)"/>
    <rect x="60" y="24" width="8" height="3" rx="1.5" fill="#3998FF" transform="rotate(42 64 25.5)"/>
    <rect x="20" y="40" width="8" height="3" rx="1.5" fill="#C684FF" transform="rotate(64 24 41.5)"/>
    <rect x="68" y="40" width="8" height="3" rx="1.5" fill="#94ED77" transform="rotate(-48 72 41.5)"/>
    <rect x="44" y="33" width="8" height="3" rx="1.5" fill="#FFD666" transform="rotate(-8 48 34.5)"/>
  </g>
  <circle cx="50" cy="50" r="42" fill="none" stroke="#E39A66" stroke-width="1.5" opacity="0.6"/>
  <circle cx="50" cy="50" r="15" fill="none" stroke="#E39A66" stroke-width="1.2" opacity="0.5"/>
</svg>
