<svg width="294" height="65" viewBox="0 0 294 65" fill="#ffdc7a" xmlns="http://www.w3.org/2000/svg">
<path d="M56.2759 51.133L59.4958 6.68545C59.7688 2.91751 62.9053 0 66.6831 0C70.6629 0 73.8892 3.22629 73.8892 7.20612V24.3197C73.8892 28.4406 77.2299 31.7813 81.3509 31.7813C85.4718 31.7813 88.8125 28.4406 88.8125 24.3197V6.27094C88.8125 2.80759 91.6201 0 95.0834 0C98.3384 0 101.052 2.49043 101.331 5.73346L105.223 50.9715C105.826 57.9788 100.3 64 93.2671 64H68.2445C61.2756 64 55.7723 58.0836 56.2759 51.133Z" fill="#ffdc7a"/>
<path d="M0.101818 50.4554L2.36674 33.0058C3.47425 24.4732 13.0827 19.9303 20.4983 24.2937C24.2205 26.484 28.8886 26.5381 32.6307 24.382L33.0172 24.1593C40.5152 19.8393 49.9819 24.6345 50.9349 33.2354L52.8677 50.6784C53.6552 57.7856 48.0913 64 40.9407 64H12.002C4.76127 64 -0.830195 57.6359 0.101818 50.4554Z" fill="#ffdc7a"/>
<path d="M123.12 63C121.44 63 120.096 62.5147 119.088 61.544C118.117 60.536 117.632 59.304 117.632 57.848V39.312C117.632 37.744 118.098 36.4187 119.032 35.336C120.002 34.2533 121.365 33.712 123.12 33.712C124.837 33.712 126.125 34.2533 126.984 35.336C127.842 36.4187 128.272 37.7813 128.272 39.424V42.224H129.28C129.28 39.0507 129.952 36.848 131.296 35.616C132.64 34.3467 134.301 33.712 136.28 33.712C138.818 33.712 140.685 34.496 141.88 36.064C143.074 37.632 143.672 39.6853 143.672 42.224H144.68C144.68 40.096 145.034 38.416 145.744 37.184C146.453 35.952 147.349 35.0747 148.432 34.552C149.552 33.992 150.709 33.712 151.904 33.712C154.33 33.712 156.104 34.2907 157.224 35.448C158.381 36.6053 159.128 38.1547 159.464 40.096C159.8 42.0373 159.968 44.2213 159.968 46.648V57.848C159.968 59.304 159.464 60.536 158.456 61.544C157.485 62.5147 156.178 63 154.536 63C152.893 63 151.568 62.5147 150.56 61.544C149.552 60.536 149.048 59.304 149.048 57.848V47.936C149.048 46.592 148.88 45.5467 148.544 44.8C148.208 44.0533 147.536 43.68 146.528 43.68C145.445 43.68 144.736 44.0907 144.4 44.912C144.101 45.7333 143.952 46.7787 143.952 48.048V57.848C143.952 59.304 143.485 60.536 142.552 61.544C141.618 62.5147 140.33 63 138.688 63C137.008 63 135.664 62.5147 134.656 61.544C133.685 60.536 133.2 59.304 133.2 57.848V47.936C133.2 46.592 133.032 45.5467 132.696 44.8C132.36 44.0533 131.706 43.68 130.736 43.68C129.653 43.68 128.962 44.0907 128.664 44.912C128.402 45.7333 128.272 46.7787 128.272 48.048V57.848C128.272 59.304 127.824 60.536 126.928 61.544C126.032 62.5147 124.762 63 123.12 63ZM168.296 63C166.653 63 165.328 62.5147 164.32 61.544C163.349 60.536 162.864 59.304 162.864 57.848V39.312C162.864 37.744 163.33 36.4187 164.264 35.336C165.197 34.2533 166.541 33.712 168.296 33.712C170.013 33.712 171.32 34.2533 172.216 35.336C173.112 36.4187 173.56 37.7813 173.56 39.424V42.224H174.568C174.568 40.096 174.941 38.416 175.688 37.184C176.472 35.952 177.461 35.0747 178.656 34.552C179.85 33.992 181.045 33.712 182.24 33.712C185.114 33.712 187.224 34.7573 188.568 36.848C189.912 38.9013 190.584 41.832 190.584 45.64V57.848C190.584 59.304 190.098 60.536 189.128 61.544C188.157 62.5147 186.85 63 185.208 63C183.528 63 182.184 62.5147 181.176 61.544C180.205 60.536 179.72 59.304 179.72 57.848V47.936C179.72 46.592 179.458 45.5467 178.936 44.8C178.45 44.0533 177.722 43.68 176.752 43.68C175.632 43.68 174.81 44.0907 174.288 44.912C173.802 45.7333 173.56 46.7787 173.56 48.048V57.848C173.56 59.304 173.093 60.536 172.16 61.544C171.226 62.5147 169.938 63 168.296 63ZM200.377 64.064C198.174 64.064 196.457 63.4853 195.225 62.328C193.993 61.1333 193.377 59.5653 193.377 57.624C193.377 55.6453 194.011 54.04 195.281 52.808C196.55 51.576 198.249 50.96 200.377 50.96C202.467 50.96 204.129 51.576 205.361 52.808C206.63 54.0027 207.265 55.5893 207.265 57.568C207.265 59.5093 206.667 61.0773 205.473 62.272C204.278 63.4667 202.579 64.064 200.377 64.064ZM218.402 63C215.639 63 213.474 62.2533 211.906 60.76C210.375 59.2667 209.61 57.176 209.61 54.488C209.61 51.8 210.506 49.8587 212.298 48.664C214.09 47.432 216.386 46.816 219.186 46.816C220.828 46.816 222.322 46.928 223.666 47.152C225.01 47.376 226.223 47.6933 227.306 48.104H227.474V47.264C227.474 46.4053 227.156 45.7333 226.522 45.248C225.887 44.7253 225.084 44.4827 224.114 44.52C223.18 44.52 222.378 44.576 221.706 44.688C221.071 44.8 220.268 44.9867 219.298 45.248C217.506 45.696 215.956 45.6587 214.65 45.136C213.343 44.6133 212.447 43.5867 211.962 42.056C211.514 40.4507 211.607 39.1067 212.242 38.024C212.914 36.9413 213.922 36.1013 215.266 35.504C216.423 34.944 217.711 34.4773 219.13 34.104C220.586 33.7307 222.154 33.544 223.834 33.544C228.724 33.544 232.308 34.7387 234.586 37.128C236.9 39.48 238.058 43.4373 238.058 49V57.68C238.058 59.2107 237.591 60.48 236.658 61.488C235.724 62.496 234.436 63 232.794 63C231.002 63 229.658 62.496 228.762 61.488C227.903 60.48 227.474 59.248 227.474 57.792V56.504H226.354C226.354 57.4747 226.167 58.464 225.794 59.472C225.458 60.48 224.73 61.32 223.61 61.992C222.527 62.664 220.791 63 218.402 63ZM218.962 50.736C218.962 51.3707 219.186 51.8187 219.634 52.08C220.119 52.3413 221.146 52.472 222.714 52.472C224.132 52.472 225.122 52.3413 225.682 52.08C226.242 51.8187 226.522 51.3707 226.522 50.736C226.522 50.1387 226.242 49.728 225.682 49.504C225.122 49.2427 224.132 49.112 222.714 49.112C221.146 49.112 220.119 49.2427 219.634 49.504C219.186 49.728 218.962 50.1387 218.962 50.736ZM246.501 63C244.747 63 243.384 62.496 242.413 61.488C241.443 60.48 240.957 59.2107 240.957 57.68V39.312C240.957 37.7067 241.443 36.3813 242.413 35.336C243.384 34.2533 244.747 33.712 246.501 33.712C248.256 33.712 249.6 34.2533 250.533 35.336C251.467 36.3813 251.933 37.6693 251.933 39.2V40.376H252.997C253.147 38.3973 253.893 36.7733 255.237 35.504C256.581 34.2347 258.168 33.6 259.997 33.6C261.827 33.6 263.264 34.16 264.309 35.28C265.392 36.4 265.933 37.8933 265.933 39.76C265.933 41.5147 265.429 42.9707 264.421 44.128C263.413 45.2853 262.125 45.864 260.557 45.864C259.251 45.864 258.149 45.5653 257.253 44.968C256.395 44.3333 255.76 43.6053 255.349 42.784C254.155 42.6347 253.277 42.7653 252.717 43.176C252.195 43.5493 251.933 44.3147 251.933 45.472V57.68C251.933 59.2107 251.467 60.48 250.533 61.488C249.6 62.496 248.256 63 246.501 63ZM281.107 63.168C278.195 63.168 275.619 62.5707 273.379 61.376C271.139 60.144 269.384 58.408 268.115 56.168C266.846 53.928 266.211 51.296 266.211 48.272C266.211 45.248 266.846 42.616 268.115 40.376C269.384 38.136 271.139 36.4 273.379 35.168C275.656 33.936 278.27 33.32 281.219 33.32C283.534 33.32 285.568 33.5627 287.323 34.048C289.115 34.5333 290.515 35.2613 291.523 36.232C292.568 37.2027 293.091 38.416 293.091 39.872C293.091 41.6267 292.643 43.008 291.747 44.016C290.851 44.9867 289.563 45.472 287.883 45.472C286.763 45.472 285.643 45.304 284.523 44.968C283.44 44.632 282.04 44.464 280.323 44.464C278.904 44.464 277.71 44.688 276.739 45.136C275.768 45.584 275.283 46.4053 275.283 47.6C275.283 48.832 275.768 49.728 276.739 50.288C277.71 50.8107 278.904 51.072 280.323 51.072C281.48 51.072 282.451 50.96 283.235 50.736C284.019 50.512 284.766 50.288 285.475 50.064C286.184 49.84 286.987 49.728 287.883 49.728C289.787 49.728 291.187 50.288 292.083 51.408C293.016 52.4907 293.483 53.8907 293.483 55.608C293.483 57.064 292.942 58.3707 291.859 59.528C290.776 60.648 289.302 61.544 287.435 62.216C285.568 62.8507 283.459 63.168 281.107 63.168Z" fill="#ffdc7a"/>
</svg>
